<mxfile host="app.diagrams.net" modified="2024-02-21T04:50:21.807Z" agent="Mozilla/5.0 (Windows NT 10.0; Win64; x64) AppleWebKit/537.36 (KHTML, like Gecko) Chrome/121.0.0.0 Safari/537.36" version="23.1.5" etag="rWWQrPfLcA_SonH9Qtyo" type="github">
  <diagram name="Halaman-1" id="odqo5G6KU87LUE8fHCEU">
    <mxGraphModel>
      <root>
        <mxCell id="0" />
        <mxCell id="1" parent="0" />
      </root>
    </mxGraphModel>
  </diagram>
</mxfile>
